{"title":"Flipped.2010.LiMiTED.480p.BRRip.H264.Feel-Free","uid":5952696,"size":1241355967,"categoryP":"video","categoryS":"movies","magnet":"?xt=urn:btih:6334e50f729299b5ab4f402bc90d8d896ef33c6b&amp;dn=Flipped.2010.LiMiTED.480p.BRRip.H264.Feel-Free&amp;tr=udp%3A%2F%2Ftracker.openbittorrent.com%3A80&amp;tr=udp%3A%2F%2Fopen.demonii.com%3A1337&amp;tr=udp%3A%2F%2Ftracker.coppersurfer.tk%3A6969&amp;tr=udp%3A%2F%2Fexodus.desync.com%3A6969","seeders":0,"leechers":1,"uploader":"deffjam555","files":8,"time":1289584247,"description":"Genre:Comedy | Drama | Romance\nLanguage:English\nIMDb:http://www.imdb.com/title/tt0817177/\nSource:720p.BluRay.x264-DEPRAViTY\n\nGeneral\nComplete name :Flipped.2010.LiMiTED.480p.BRRip.H264.Feel-Free\nFormat : MPEG-4\nFormat profile : Base Media / Version 2\nCodec ID : mp42\nFile size : 1.15 GiB\nDuration : 1h 29mn\nOverall bit rate : 1 841 Kbps\nVideo #1\nCodec ID : avc1\nCodec ID/Info : Advanced Video Coding\nDuration : 1h 29mn\nBit rate mode : Variable\nBit rate : 1 383 Kbps\nWidth : 720 pixels\nHeight : 384 pixels\nDisplay aspect ratio : 1.875\nFrame rate mode : Constant\nFrame rate : 23.976 fps\nResolution : 24 bits\nColorimetry : 4:2:0\nScan type : Progressive\nBits/(Pixel*Frame) : 0.209\nStream size : 888 MiB (75%)\nAudio #2\nID : 2\nFormat : AAC\nFormat/Info : Advanced Audio Codec\nFormat version : Version 4\nFormat profile : LC\nFormat settings, SBR : No\nCodec ID : 40\nDuration : 1h 29mn\nBit rate mode : Constant\nBit rate : 454 Kbps\nNominal bit rate : 480 Kbps\nChannel(s) : 6 channels\nChannel positions : Front: L C R, Rear: L R, LFE\nSampling rate : 48.0 KHz\nResolution : 16 bits\nStream size : 292 MiB (25%)\n\nPlot:\nTwo eighth graders start to have feelings for each other despite being total opposites. Based on the novel \\&quot;Flipped\\&quot; by Wendelin Van Draanen.\n\n\nscreens\n &lt;a href=&quot;\nhttp://rapidhdd.com/images/276971vlcsnap-2010-11-12-18h34m43s150.png&quot; rel=&quot;nofollow&quot; target=&quot;_NEW&quot;&gt;\nhttp://rapidhdd.com/images/276971vlcsnap-2010-11-12-18h34m43s150.png&lt;/a&gt;\n &lt;a href=&quot;\nhttp://www.rapidhdd.com/images/28889vlcsnap-2010-11-12-18h34m47s186.png&quot; rel=&quot;nofollow&quot; target=&quot;_NEW&quot;&gt;\nhttp://www.rapidhdd.com/images/28889vlcsnap-2010-11-12-18h34m47s186.png&lt;/a&gt;\n &lt;a href=&quot;\nhttp://www.rapidhdd.com/images/600575vlcsnap-2010-11-12-18h35m09s144.png&quot; rel=&quot;nofollow&quot; target=&quot;_NEW&quot;&gt;\nhttp://www.rapidhdd.com/images/600575vlcsnap-2010-11-12-18h35m09s144.png&lt;/a&gt;\n &lt;a href=&quot;\nhttp://www.rapidhdd.com/images/149922vlcsnap-2010-11-12-18h35m21s15.png&quot; rel=&quot;nofollow&quot; target=&quot;_NEW&quot;&gt;\nhttp://www.rapidhdd.com/images/149922vlcsnap-2010-11-12-18h35m21s15.png&lt;/a&gt; &lt;a href=&quot;\nhttp://www.rapidhdd.com/images/327990vlcsnap-2010-11-12-18h36m29s167.png&quot; rel=&quot;nofollow&quot; target=&quot;_NEW&quot;&gt;\nhttp://www.rapidhdd.com/images/327990vlcsnap-2010-11-12-18h36m29s167.png&lt;/a&gt;","torrent":{"xt":"urn:btih:6334e50f729299b5ab4f402bc90d8d896ef33c6b","amp;dn":"Flipped.2010.LiMiTED.480p.BRRip.H264.Feel-Free","amp;tr":["udp%3A%2F%2Ftracker.openbittorrent.com%3A80","udp%3A%2F%2Fopen.demonii.com%3A1337","udp%3A%2F%2Ftracker.coppersurfer.tk%3A6969","udp%3A%2F%2Fexodus.desync.com%3A6969"],"infoHash":"6334e50f729299b5ab4f402bc90d8d896ef33c6b","infoHashBuffer":{"type":"Buffer","data":[99,52,229,15,114,146,153,181,171,79,64,43,201,13,141,137,110,243,60,107]},"announce":[],"urlList":[]}}